<svg xmlns="http://www.w3.org/2000/svg" viewBox="0 0 400 300" width="406" height="306" class="illustration styles_illustrationTablet__1DWOa"><g id="_423_cake_outline" data-name="#423_cake_outline"><rect x="96.54" y="110.95" width="206.63" height="112.9" rx="8.19" fill="#A5B4FC"></rect><path d="M295,224.85H104.73a9.2,9.2,0,0,1-9.19-9.19V119.14a9.2,9.2,0,0,1,9.19-9.19H295a9.21,9.21,0,0,1,9.2,9.19v96.52A9.21,9.21,0,0,1,295,224.85ZM104.73,112a7.2,7.2,0,0,0-7.19,7.19v96.52a7.19,7.19,0,0,0,7.19,7.19H295a7.2,7.2,0,0,0,7.2-7.19V119.14A7.21,7.21,0,0,0,295,112Z" fill="#093f68"></path><path d="M214.85,99.53c0,9.68-6.65,11.42-14.85,11.42s-14.85-1.74-14.85-11.42c0-7.18,8.18-16.71,12.4-21.15a3.3,3.3,0,0,1,4.9,0C206.67,82.82,214.85,92.35,214.85,99.53Z" fill="#f56132"></path><path d="M200,112c-7.84,0-15.85-1.48-15.85-12.42,0-7.4,7.94-16.86,12.67-21.84A4.36,4.36,0,0,1,200,76.3h0a4.36,4.36,0,0,1,3.18,1.39c4.73,5,12.67,14.44,12.67,21.84C215.85,110.47,207.84,112,200,112Zm0-33.65a2.37,2.37,0,0,0-1.73.77c-3.64,3.83-12.12,13.51-12.12,20.46,0,8.65,5.54,10.42,13.85,10.42s13.85-1.77,13.85-10.42c0-7-8.48-16.63-12.12-20.46A2.37,2.37,0,0,0,200,78.3Z" fill="#093f68"></path><path d="M306.56,120c0,9.63,2.4,22.77-2.26,31.56-1.46,2.76-4.24,5-7.35,5-1.64,0-3.23-.68-4.86-.59-5,.29-7.24,6.93-11.91,8.83-3.49,1.42-7.53-.18-10.44-2.58s-5.12-5.53-8-8c-8.64-7.21-23.08-5.87-30.24,2.8-3.51,4.25-6.43,10.47-11.94,10.48-2.85,0-5.33-1.79-7.87-3.08-4.39-2.23-10-2.91-14.05-.07-1.47,1-2.66,2.5-4.3,3.25-3.52,1.61-7.6-.61-10.5-3.19s-5.64-5.77-9.45-6.5c-6.23-1.18-11.3,4.54-16.06,8.73-5.17,4.55-13.35,7.66-18.66,3.27-3-2.45-4-6.47-5.81-9.87s-5.54-6.6-9.16-5.28c-2.54.92-3.85,3.68-5.91,5.44-2.78,2.39-6.91,2.78-10.39,1.62a19,19,0,0,1-8.62-6.59c-8-10.14-5.63-23.14-5.63-35.27a9,9,0,0,1,9-9H297.51A9,9,0,0,1,306.56,120Z" fill="#fff"></path><path d="M144.82,173.07a10.38,10.38,0,0,1-6.8-2.35c-2.3-1.9-3.5-4.61-4.67-7.23-.43-1-.89-2-1.39-2.94-1.7-3.21-5-5.89-7.92-4.81a8.91,8.91,0,0,0-3.45,3,20.22,20.22,0,0,1-2.16,2.29,11.92,11.92,0,0,1-11.36,1.81A19.84,19.84,0,0,1,98,155.89c-6.72-8.56-6.35-19-6-29.15.08-2.23.16-4.53.16-6.74a10.06,10.06,0,0,1,10-10H297.51a10.06,10.06,0,0,1,10.05,10c0,2.32.14,4.84.29,7.51.46,8.26,1,17.63-2.67,24.52-1.8,3.41-5,5.55-8.25,5.52a13.23,13.23,0,0,1-2.4-.32,10.19,10.19,0,0,0-2.39-.27c-2.41.14-4.17,2.1-6,4.17-1.61,1.8-3.28,3.66-5.56,4.59-3.41,1.38-7.69.36-11.45-2.74a42.51,42.51,0,0,1-4.16-4.11,43.6,43.6,0,0,0-3.85-3.84,21.26,21.26,0,0,0-28.83,2.67c-.75.91-1.47,1.91-2.23,3-2.79,3.86-5.68,7.86-10.48,7.87h0c-2.49,0-4.63-1.19-6.71-2.33-.53-.3-1.06-.59-1.59-.86-3.72-1.89-9.1-2.92-13-.14a15.26,15.26,0,0,0-1.5,1.23,12.49,12.49,0,0,1-3,2.11c-3.29,1.51-7.51.28-11.58-3.36-.51-.45-1-.92-1.51-1.39-2.26-2.12-4.6-4.32-7.47-4.86-4.89-.93-9.14,2.95-13.25,6.71-.66.61-1.31,1.21-2,1.78C154.34,170.63,149.41,173.07,144.82,173.07ZM125.38,153.5c3.36,0,6.59,2.81,8.35,6.11.53,1,1,2,1.45,3.07,1.12,2.52,2.17,4.9,4.12,6.5,4.62,3.82,12.23,1.26,17.36-3.25.64-.57,1.28-1.16,1.93-1.75,4.27-3.91,9.1-8.33,15-7.21,3.43.66,6,3.05,8.46,5.37.49.46,1,.92,1.47,1.36,1.63,1.46,5.81,4.68,9.42,3a10.93,10.93,0,0,0,2.47-1.8,18.73,18.73,0,0,1,1.66-1.35c4.66-3.29,10.84-2.16,15.08,0,.56.28,1.11.58,1.66.89,1.94,1.07,3.77,2.08,5.74,2.08h0c3.79,0,6.25-3.42,8.86-7,.75-1,1.52-2.11,2.32-3.07a23.24,23.24,0,0,1,31.65-2.93,43.72,43.72,0,0,1,4,4,40.82,40.82,0,0,0,4,3.93c2.45,2,6.22,3.72,9.42,2.42,1.85-.75,3.29-2.36,4.82-4.06,2.05-2.29,4.18-4.65,7.41-4.83a11.36,11.36,0,0,1,2.88.3,11.71,11.71,0,0,0,2,.28H297c2.44,0,4.93-1.74,6.37-4.45,3.4-6.41,2.89-15.47,2.44-23.48-.15-2.69-.29-5.24-.29-7.62a8.06,8.06,0,0,0-8.05-8H102.19a8.06,8.06,0,0,0-8,8c0,2.25-.08,4.57-.16,6.81-.34,9.76-.69,19.86,5.58,27.85a17.77,17.77,0,0,0,8.15,6.25,9.87,9.87,0,0,0,9.42-1.43,18.28,18.28,0,0,0,1.93-2.06,10.51,10.51,0,0,1,4.29-3.56A5.76,5.76,0,0,1,125.38,153.5Z" fill="#093f68"></path><path d="M226.36,139.36a1,1,0,0,1-.3-2l9.18-2.8a1,1,0,1,1,.58,1.91l-9.17,2.8A1,1,0,0,1,226.36,139.36Z" fill="#70cc40"></path><path d="M139,133.78a1,1,0,0,1-.51-.14l-9.85-5.78a1,1,0,1,1,1-1.72l9.85,5.77a1,1,0,0,1-.5,1.87Z" fill="#70cc40"></path><path d="M191.51,137.38a1,1,0,0,1-.8-.4l-5.44-7.2a1,1,0,0,1,1.59-1.21l5.45,7.21a1,1,0,0,1-.2,1.4A1,1,0,0,1,191.51,137.38Z" fill="#70cc40"></path><path d="M262.44,130.06a1,1,0,0,1-.34-.06l-11.33-4.12a1,1,0,1,1,.68-1.88l11.33,4.12a1,1,0,0,1-.34,1.94Z" fill="#f56132"></path><path d="M155,129.7a1,1,0,0,1-.75-.34,1,1,0,0,1,.08-1.41l6.46-5.78a1,1,0,0,1,1.33,1.5l-6.45,5.77A1,1,0,0,1,155,129.7Z" fill="#f56132"></path><path d="M114.21,144a1,1,0,0,1-.35-.06,1,1,0,0,1-.59-1.29l2-5.44a1,1,0,0,1,1.29-.58,1,1,0,0,1,.58,1.28l-2,5.44A1,1,0,0,1,114.21,144Z" fill="#f56132"></path><path d="M208.93,128.57a1,1,0,0,1-.47-1.88l11.06-5.9a1,1,0,1,1,.94,1.76l-11.06,5.9A1,1,0,0,1,208.93,128.57Z" fill="#ffbc0e"></path><path d="M212.42,154.51l-.2,0-9.85-2a1,1,0,1,1,.4-2l9.85,2a1,1,0,0,1-.2,2Z" fill="#f56132"></path><path d="M107.07,128a1,1,0,0,1-.5-1.87l9.18-5.33a1,1,0,0,1,1.36.37,1,1,0,0,1-.36,1.36l-9.18,5.33A1,1,0,0,1,107.07,128Z" fill="#ffbc0e"></path><path d="M294.67,125.33h-.06c-1.05,0-10.52-2.25-12.41-2.69a1,1,0,0,1,.46-2c4.27,1,11.32,2.59,12.06,2.64a1,1,0,0,1,.94,1.06A1,1,0,0,1,294.67,125.33Z" fill="#ffbc0e"></path><path d="M277,152.47a1.06,1.06,0,0,1-.51-.14L269,147.91a1,1,0,0,1,1-1.72l7.47,4.42a1,1,0,0,1-.51,1.86Z" fill="#ffbc0e"></path><path d="M282.43,138.53a1,1,0,0,1-.09-2l12.23-1.16a1,1,0,0,1,.19,2l-12.24,1.16Z" fill="#70cc40"></path><path d="M303.17,194.27H96.54a1,1,0,1,1,0-2H303.17a1,1,0,0,1,0,2Z" fill="#093f68"></path><path d="M303.17,206.5H96.54a1,1,0,0,1,0-2H303.17a1,1,0,0,1,0,2Z" fill="#093f68"></path></g></svg>